<svg width="54" height="54" viewBox="0 0 54 54" fill="none" xmlns="http://www.w3.org/2000/svg">
<g clip-path="url(#clip0_235_245)">
<rect y="27" width="38.1838" height="38.1838" rx="3.73773" transform="rotate(-45 0 27)" fill="#006D77"/>
<path d="M18.395 19V15.738H19.4972C19.7521 15.738 19.9612 15.7815 20.1248 15.8686C20.2883 15.9546 20.4093 16.073 20.4879 16.2238C20.5665 16.3746 20.6058 16.5461 20.6058 16.7383C20.6058 16.9304 20.5665 17.1009 20.4879 17.2495C20.4093 17.3982 20.2888 17.515 20.1264 17.5999C19.9639 17.6838 19.7563 17.7258 19.5036 17.7258H18.6116V17.369H19.4908C19.665 17.369 19.8052 17.3435 19.9113 17.2925C20.0186 17.2416 20.0961 17.1694 20.1439 17.0759C20.1927 16.9814 20.2172 16.8689 20.2172 16.7383C20.2172 16.6076 20.1927 16.4935 20.1439 16.3958C20.095 16.2981 20.017 16.2227 19.9097 16.1696C19.8025 16.1155 19.6607 16.0884 19.4845 16.0884H18.79V19H18.395ZM19.9305 17.5346L20.7332 19H20.2745L19.4845 17.5346H19.9305ZM23.8762 17.1938V17.5442H22.449V17.1938H23.8762ZM26.8567 19H25.85V15.738H26.9013C27.2177 15.738 27.4885 15.8033 27.7136 15.9339C27.9387 16.0634 28.1112 16.2498 28.2312 16.493C28.3512 16.7351 28.4112 17.025 28.4112 17.3626C28.4112 17.7024 28.3507 17.995 28.2296 18.2402C28.1086 18.4845 27.9323 18.6724 27.7008 18.8041C27.4693 18.9347 27.188 19 26.8567 19ZM26.245 18.6496H26.8312C27.1009 18.6496 27.3244 18.5976 27.5017 18.4935C27.6791 18.3894 27.8113 18.2413 27.8983 18.0491C27.9854 17.8569 28.0289 17.6281 28.0289 17.3626C28.0289 17.0993 27.9859 16.8726 27.8999 16.6825C27.8139 16.4914 27.6854 16.3448 27.5145 16.2429C27.3435 16.1399 27.1306 16.0884 26.8758 16.0884H26.245V18.6496ZM30.0486 19.051C29.8129 19.051 29.6095 18.9989 29.4386 18.8949C29.2687 18.7898 29.1375 18.6432 29.0451 18.4553C28.9538 18.2663 28.9082 18.0465 28.9082 17.7959C28.9082 17.5453 28.9538 17.3244 29.0451 17.1333C29.1375 16.9411 29.266 16.7913 29.4306 16.6841C29.5962 16.5758 29.7895 16.5216 30.0104 16.5216C30.1378 16.5216 30.2636 16.5429 30.3879 16.5853C30.5121 16.6278 30.6252 16.6968 30.7271 16.7924C30.8291 16.8869 30.9103 17.0122 30.9708 17.1683C31.0313 17.3244 31.0616 17.5166 31.0616 17.7449V17.9042H29.1757V17.5792H30.6793C30.6793 17.4412 30.6517 17.318 30.5965 17.2097C30.5424 17.1014 30.4648 17.0159 30.364 16.9533C30.2641 16.8906 30.1463 16.8593 30.0104 16.8593C29.8606 16.8593 29.7311 16.8965 29.6217 16.9708C29.5134 17.0441 29.4301 17.1396 29.3717 17.2575C29.3133 17.3754 29.2841 17.5017 29.2841 17.6366V17.8532C29.2841 18.038 29.3159 18.1946 29.3796 18.3231C29.4444 18.4505 29.5341 18.5476 29.6488 18.6145C29.7635 18.6804 29.8967 18.7133 30.0486 18.7133C30.1473 18.7133 30.2365 18.6995 30.3162 18.6719C30.3969 18.6432 30.4664 18.6007 30.5248 18.5445C30.5832 18.4871 30.6284 18.416 30.6602 18.331L31.0234 18.433C30.9851 18.5561 30.9209 18.6645 30.8306 18.7579C30.7404 18.8503 30.6289 18.9225 30.4962 18.9745C30.3634 19.0255 30.2142 19.051 30.0486 19.051ZM33.5595 16.5535L32.6548 19H32.2725L31.3678 16.5535H31.7756L32.4509 18.5031H32.4764L33.1517 16.5535H33.5595ZM35.7886 17.1014L35.4509 17.197C35.4297 17.1407 35.3983 17.086 35.3569 17.0329C35.3166 16.9788 35.2614 16.9342 35.1913 16.8991C35.1212 16.8641 35.0315 16.8466 34.9221 16.8466C34.7724 16.8466 34.6476 16.8811 34.5478 16.9501C34.449 17.018 34.3997 17.1046 34.3997 17.2097C34.3997 17.3032 34.4337 17.377 34.5016 17.4311C34.5696 17.4853 34.6758 17.5304 34.8202 17.5665L35.1833 17.6557C35.4021 17.7088 35.5651 17.79 35.6723 17.8994C35.7796 18.0077 35.8332 18.1473 35.8332 18.3183C35.8332 18.4585 35.7928 18.5838 35.7121 18.6942C35.6325 18.8046 35.521 18.8917 35.3776 18.9554C35.2343 19.0191 35.0676 19.051 34.8775 19.051C34.628 19.051 34.4214 18.9968 34.2579 18.8885C34.0944 18.7802 33.9909 18.622 33.9473 18.4139L34.3041 18.3247C34.3381 18.4563 34.4023 18.5551 34.4968 18.6209C34.5924 18.6868 34.7172 18.7197 34.8711 18.7197C35.0463 18.7197 35.1854 18.6825 35.2884 18.6082C35.3925 18.5328 35.4445 18.4425 35.4445 18.3374C35.4445 18.2525 35.4148 18.1813 35.3553 18.124C35.2959 18.0656 35.2046 18.022 35.0814 17.9934L34.6736 17.8978C34.4496 17.8447 34.285 17.7624 34.1799 17.6509C34.0758 17.5384 34.0238 17.3977 34.0238 17.2288C34.0238 17.0908 34.0625 16.9687 34.14 16.8625C34.2186 16.7563 34.3253 16.6729 34.4602 16.6124C34.5961 16.5519 34.7501 16.5216 34.9221 16.5216C35.1642 16.5216 35.3543 16.5747 35.4923 16.6809C35.6314 16.7871 35.7302 16.9273 35.7886 17.1014Z" fill="#83C5BE"/>
<path d="M14.8043 25.3282H12.0795C12.0795 24.5432 12.4421 24.1508 13.1672 24.1508H18.8635C18.8635 24.5395 18.77 24.8348 18.5831 25.0366C18.4037 25.231 18.1346 25.3282 17.7758 25.3282H16.1499V31.0693C16.1499 31.3982 16.034 31.6524 15.8023 31.8318C15.5705 32.0112 15.2379 32.1009 14.8043 32.1009V25.3282ZM22.3435 32.1009C21.7305 32.1009 21.1699 31.9776 20.6615 31.7309C20.1607 31.4842 19.7645 31.1515 19.4729 30.7329C19.1814 30.3143 19.0356 29.8545 19.0356 29.3537V26.7859C19.0356 26.285 19.1776 25.8253 19.4617 25.4067C19.7533 24.988 20.1495 24.6591 20.6503 24.4199C21.1586 24.1732 21.723 24.0499 22.3435 24.0499C22.964 24.0499 23.5246 24.1732 24.0255 24.4199C24.5338 24.6591 24.93 24.988 25.2141 25.4067C25.5056 25.8253 25.6514 26.285 25.6514 26.7859V29.3537C25.6514 29.8545 25.5056 30.3143 25.2141 30.7329C24.9225 31.1515 24.5226 31.4842 24.0143 31.7309C23.5134 31.9776 22.9565 32.1009 22.3435 32.1009ZM22.3435 30.9235C22.9415 30.9235 23.4162 30.7778 23.7676 30.4862C24.1264 30.1947 24.3058 29.8097 24.3058 29.3313V26.8083C24.3058 26.3299 24.1264 25.9486 23.7676 25.6646C23.4162 25.373 22.9415 25.2272 22.3435 25.2272C21.7455 25.2272 21.267 25.373 20.9082 25.6646C20.5569 25.9486 20.3812 26.3299 20.3812 26.8083V29.3313C20.3812 29.8097 20.5569 30.1947 20.9082 30.4862C21.267 30.7778 21.7455 30.9235 22.3435 30.9235ZM27.4895 32C27.2951 32 27.1306 31.9402 26.9961 31.8206C26.869 31.701 26.8055 31.5515 26.8055 31.3721V24.7675C26.8055 24.5956 26.869 24.4498 26.9961 24.3302C27.1306 24.2106 27.2951 24.1508 27.4895 24.1508H30.0236C30.674 24.1508 31.2496 24.2741 31.7505 24.5208C32.2588 24.7675 32.6513 25.1151 32.9279 25.5636C33.2045 26.0122 33.3428 26.528 33.3428 27.1111V29.0061C33.3428 29.5892 33.2007 30.1087 32.9166 30.5647C32.6401 31.0132 32.2476 31.3646 31.7393 31.6188C31.2384 31.8729 30.6665 32 30.0236 32H27.4895ZM29.9115 30.8338C30.5768 30.8338 31.0889 30.6768 31.4477 30.3629C31.814 30.0489 31.9972 29.6041 31.9972 29.0285V27.0998C31.9972 26.5242 31.8178 26.0832 31.4589 25.7767C31.1001 25.4702 30.5843 25.3169 29.9115 25.3169H28.151V30.8338H29.9115ZM37.6412 32.1009C37.0282 32.1009 36.4675 31.9776 35.9592 31.7309C35.4583 31.4842 35.0621 31.1515 34.7706 30.7329C34.479 30.3143 34.3333 29.8545 34.3333 29.3537V26.7859C34.3333 26.285 34.4753 25.8253 34.7594 25.4067C35.0509 24.988 35.4471 24.6591 35.948 24.4199C36.4563 24.1732 37.0207 24.0499 37.6412 24.0499C38.2616 24.0499 38.8223 24.1732 39.3231 24.4199C39.8315 24.6591 40.2277 24.988 40.5117 25.4067C40.8033 25.8253 40.9491 26.285 40.9491 26.7859V29.3537C40.9491 29.8545 40.8033 30.3143 40.5117 30.7329C40.2202 31.1515 39.8203 31.4842 39.3119 31.7309C38.8111 31.9776 38.2542 32.1009 37.6412 32.1009ZM37.6412 30.9235C38.2392 30.9235 38.7139 30.7778 39.0652 30.4862C39.4241 30.1947 39.6035 29.8097 39.6035 29.3313V26.8083C39.6035 26.3299 39.4241 25.9486 39.0652 25.6646C38.7139 25.373 38.2392 25.2272 37.6412 25.2272C37.0431 25.2272 36.5647 25.373 36.2059 25.6646C35.8545 25.9486 35.6789 26.3299 35.6789 26.8083V29.3313C35.6789 29.8097 35.8545 30.1947 36.2059 30.4862C36.5647 30.7778 37.0431 30.9235 37.6412 30.9235Z" fill="white"/>
<path d="M35 34.5L26.75 42.75L23 39" stroke="#83C5BE" stroke-width="1.5" stroke-linecap="round" stroke-linejoin="round"/>
</g>
<defs>
<clipPath id="clip0_235_245">
<rect y="27" width="38.1838" height="38.1838" rx="3.73773" transform="rotate(-45 0 27)" fill="white"/>
</clipPath>
</defs>
</svg>
